<svg width="100" height="100" version="1.1" viewBox="0 0 26.458 26.458" xmlns="http://www.w3.org/2000/svg"><g transform="matrix(.26458 0 0 .26458 -25.144 3.0937)"><g transform="translate(-196.45 -218.39)"><g transform="matrix(.29642 0 0 .29642 264.9 182.1)" style="stroke-width:3.3736"><path transform="translate(-1.1364e-6)" d="m172 324c0 13.2 10.8 24 24 24h8v40c0 11.044 8.952 20 20 20s20-8.956 20-20v-40h24v40c0 11.044 8.952 20 20 20s20-8.956 20-20v-40h8c13.2 0 24-10.8 24-24v-120h-168z" style="fill:#273746;stroke-width:3.3736"/><path transform="translate(-1.1364e-6)" d="m368 200c-11.048 0-20 8.956-20 20v80c0 11.044 8.952 20 20 20s20-8.956 20-20v-80c0-11.044-8.952-20-20-20z" style="fill:#343d54;stroke-width:3.3736"/><path transform="translate(-1.1364e-6)" d="m144 200c-11.048 0-20 8.956-20 20v80c0 11.044 8.952 20 20 20s20-8.956 20-20v-80c0-11.044-8.952-20-20-20z" style="fill:#273746;stroke-width:3.3736"/><path transform="translate(-1.1364e-6)" d="m301.46 125.43 10.796-19.764c1.06-1.94 0.344-4.368-1.592-5.428s-4.372-0.348-5.428 1.592l-10.7 19.584c-11.552-5.984-24.632-9.416-38.54-9.416s-26.988 3.432-38.54 9.416l-10.7-19.584c-1.064-1.936-3.492-2.66-5.428-1.592-1.936 1.06-2.652 3.488-1.592 5.428l10.796 19.764c-23.164 14.956-38.536 40.944-38.536 70.568h168c0-29.624-15.372-55.612-38.536-70.568zm-81.464 42.568c-4.416 0-8-3.584-8-8s3.584-8 8-8 8 3.584 8 8-3.584 8-8 8zm72 0c-4.416 0-8-3.584-8-8s3.584-8 8-8 8 3.584 8 8-3.584 8-8 8z" style="fill:#273746;stroke-width:3.3736"/><g style="fill:#34495e;stroke-width:3.3736"><path d="m256 348h12v40c0 11.044 8.952 20 20 20s20-8.956 20-20v-40h8c13.2 0 24-10.8 24-24v-120h-84z" style="fill:#34495e;stroke-width:3.3736"/><path d="m301.46 125.43 10.796-19.764c1.06-1.94 0.344-4.368-1.592-5.428s-4.372-0.348-5.428 1.592l-10.7 19.584c-11.552-5.984-24.632-9.416-38.54-9.416v84h84c0-29.624-15.372-55.612-38.536-70.568zm-9.464 42.568c-4.416 0-8-3.584-8-8s3.584-8 8-8 8 3.584 8 8-3.584 8-8 8z" style="fill:#34495e;stroke-width:3.3736"/><path d="m368 200c-11.048 0-20 8.956-20 20v80c0 11.044 8.952 20 20 20s20-8.956 20-20v-80c0-11.044-8.952-20-20-20z" style="fill:#34495e;stroke-width:3.3736"/></g></g></g></g></svg>
